<svg width="280" height="280" viewBox="0 0 280 280" fill="none" xmlns="http://www.w3.org/2000/svg">
<circle cx="140" cy="140" r="140" fill="#455560"/>
<path d="M131.6 59.2292C90.7013 63.4325 58.8 97.9908 58.8 140C58.8 182.009 90.7013 216.567 131.6 220.771V237.645C81.4083 233.384 42 191.294 42 140C42 88.7057 81.4083 46.6157 131.6 42.355V59.2292Z" fill="#F7F7F7"/>
<path d="M140 92.4C116.577 92.4 97.1062 109.318 93.1388 131.6H76.1429C80.2589 100.002 107.28 75.6 140 75.6C172.72 75.6 199.741 100.002 203.857 131.6H186.861C182.894 109.318 163.423 92.4 140 92.4Z" fill="#F7F7F7"/>
<path d="M140 187.6C163.423 187.6 182.894 170.682 186.861 148.4H203.857C199.741 179.998 172.72 204.4 140 204.4C107.28 204.4 80.2589 179.998 76.1429 148.4H93.1388C97.1062 170.682 116.577 187.6 140 187.6Z" fill="#F7F7F7"/>
<path d="M221.2 140C221.2 97.9908 189.299 63.4325 148.4 59.2292V42.355C198.592 46.6157 238 88.7057 238 140C238 191.294 198.592 233.384 148.4 237.645V220.771C189.299 216.567 221.2 182.009 221.2 140Z" fill="#F7F7F7"/>
<path fill-rule="evenodd" clip-rule="evenodd" d="M170.8 140C170.8 157.01 157.01 170.8 140 170.8C122.99 170.8 109.2 157.01 109.2 140C109.2 122.99 122.99 109.2 140 109.2C157.01 109.2 170.8 122.99 170.8 140ZM154 140C154 147.732 147.732 154 140 154C132.268 154 126 147.732 126 140C126 132.268 132.268 126 140 126C147.732 126 154 132.268 154 140Z" fill="#F7F7F7"/>
<path fill-rule="evenodd" clip-rule="evenodd" d="M140 273C213.454 273 273 213.454 273 140C273 66.5461 213.454 7 140 7C66.5461 7 7 66.5461 7 140C7 213.454 66.5461 273 140 273ZM140 267.4C210.361 267.4 267.4 210.361 267.4 140C267.4 69.6389 210.361 12.6 140 12.6C69.6389 12.6 12.6 69.6389 12.6 140C12.6 210.361 69.6389 267.4 140 267.4Z" fill="#F7F7F7"/>
</svg>
