<svg width="400" height="400" viewBox="0 0 400 400" fill="none" xmlns="http://www.w3.org/2000/svg">
<style>
.outer {
    animation: outer 3s linear infinite;
}

@keyframes outer {
    0% {
        stroke-dasharray: 0 480;
    }
    100% {
        stroke-dasharray: 480 480;
    }
}
</style>
<circle cx="200" cy="200" r="200" fill="#F7F7F7"/>
<circle cx="200" cy="200" r="186" fill="#F7F7F7" stroke="#455560" stroke-width="8"/>
<circle cx="200" cy="200" r="32" stroke="#455560" stroke-width="24"/>
<g stroke="#F7F7F7" stroke-width="5" class="outer">
    <path d="M266.945 212C261.277 243.832 233.461 268 200 268C166.539 268 138.723 243.832 133.055 212H108.776C114.656 257.14 153.257 292 200 292C246.743 292 285.344 257.14 291.224 212H266.945Z" fill="#455560"/>
    <path d="M133.055 188C138.723 156.168 166.539 132 200 132C233.461 132 261.277 156.168 266.945 188H291.224C285.344 142.86 246.743 108 200 108C153.257 108 114.656 142.86 108.776 188H133.055Z" fill="#455560"/>
</g>
<g stroke="#F7F7F7" stroke-width="5" class="outer">
    <path d="M188 84.6132C129.573 90.6179 84 139.987 84 200C84 260.013 129.573 309.382 188 315.387V339.493C116.298 333.406 60 273.278 60 200C60 126.722 116.298 66.5939 188 60.5071V84.6132Z" fill="#455560"/>
    <path d="M212 60.5071V84.6132C270.427 90.6179 316 139.987 316 200C316 260.013 270.427 309.382 212 315.387V339.493C283.702 333.406 340 273.278 340 200C340 126.722 283.702 66.5939 212 60.5071Z" fill="#455560"/>
</g>
</svg>
